<mxfile host="65bd71144e">
    <diagram id="zidW0E20TAqKv0f8WzHJ" name="Page-1">
        <mxGraphModel dx="654" dy="790" grid="1" gridSize="10" guides="1" tooltips="1" connect="1" arrows="1" fold="1" page="1" pageScale="1" pageWidth="850" pageHeight="1100" math="0" shadow="0">
            <root>
                <mxCell id="7GAFne7jFf4ZpXgOAj6N-0"/>
                <mxCell id="7GAFne7jFf4ZpXgOAj6N-1" parent="7GAFne7jFf4ZpXgOAj6N-0"/>
                <mxCell id="agKaHP87nCP-bGPWGKkW-3" style="edgeStyle=none;html=1;entryX=0.5;entryY=0;entryDx=0;entryDy=0;entryPerimeter=0;" edge="1" parent="7GAFne7jFf4ZpXgOAj6N-1" source="agKaHP87nCP-bGPWGKkW-0" target="agKaHP87nCP-bGPWGKkW-2">
                    <mxGeometry relative="1" as="geometry"/>
                </mxCell>
                <mxCell id="agKaHP87nCP-bGPWGKkW-0" value="Start" style="strokeWidth=2;html=1;shape=mxgraph.flowchart.terminator;whiteSpace=wrap;" vertex="1" parent="7GAFne7jFf4ZpXgOAj6N-1">
                    <mxGeometry x="420" y="200" width="100" height="60" as="geometry"/>
                </mxCell>
                <mxCell id="agKaHP87nCP-bGPWGKkW-1" value="End" style="strokeWidth=2;html=1;shape=mxgraph.flowchart.terminator;whiteSpace=wrap;" vertex="1" parent="7GAFne7jFf4ZpXgOAj6N-1">
                    <mxGeometry x="420" y="630" width="100" height="60" as="geometry"/>
                </mxCell>
                <mxCell id="agKaHP87nCP-bGPWGKkW-19" style="edgeStyle=none;html=1;entryX=0.5;entryY=0;entryDx=0;entryDy=0;entryPerimeter=0;" edge="1" parent="7GAFne7jFf4ZpXgOAj6N-1" source="agKaHP87nCP-bGPWGKkW-2" target="agKaHP87nCP-bGPWGKkW-4">
                    <mxGeometry relative="1" as="geometry"/>
                </mxCell>
                <mxCell id="agKaHP87nCP-bGPWGKkW-23" style="edgeStyle=none;html=1;entryX=0;entryY=0.5;entryDx=0;entryDy=0;entryPerimeter=0;exitX=0;exitY=0.5;exitDx=0;exitDy=0;exitPerimeter=0;" edge="1" parent="7GAFne7jFf4ZpXgOAj6N-1" source="agKaHP87nCP-bGPWGKkW-2" target="agKaHP87nCP-bGPWGKkW-1">
                    <mxGeometry relative="1" as="geometry">
                        <mxPoint x="329" y="310" as="targetPoint"/>
                        <mxPoint x="400" y="320" as="sourcePoint"/>
                        <Array as="points">
                            <mxPoint x="360" y="340"/>
                            <mxPoint x="360" y="660"/>
                        </Array>
                    </mxGeometry>
                </mxCell>
                <mxCell id="agKaHP87nCP-bGPWGKkW-2" value="for i in range(1,3):" style="strokeWidth=2;html=1;shape=mxgraph.flowchart.decision;whiteSpace=wrap;" vertex="1" parent="7GAFne7jFf4ZpXgOAj6N-1">
                    <mxGeometry x="400" y="300" width="140" height="80" as="geometry"/>
                </mxCell>
                <mxCell id="agKaHP87nCP-bGPWGKkW-20" style="edgeStyle=none;html=1;entryX=0.5;entryY=0;entryDx=0;entryDy=0;entryPerimeter=0;" edge="1" parent="7GAFne7jFf4ZpXgOAj6N-1" source="agKaHP87nCP-bGPWGKkW-4" target="agKaHP87nCP-bGPWGKkW-8">
                    <mxGeometry relative="1" as="geometry"/>
                </mxCell>
                <mxCell id="agKaHP87nCP-bGPWGKkW-22" style="edgeStyle=none;html=1;" edge="1" parent="7GAFne7jFf4ZpXgOAj6N-1" source="agKaHP87nCP-bGPWGKkW-4">
                    <mxGeometry relative="1" as="geometry">
                        <mxPoint x="470" y="280" as="targetPoint"/>
                        <Array as="points">
                            <mxPoint x="560" y="470"/>
                            <mxPoint x="560" y="280"/>
                        </Array>
                    </mxGeometry>
                </mxCell>
                <mxCell id="agKaHP87nCP-bGPWGKkW-4" value="for j in range(2,5):" style="strokeWidth=2;html=1;shape=mxgraph.flowchart.decision;whiteSpace=wrap;" vertex="1" parent="7GAFne7jFf4ZpXgOAj6N-1">
                    <mxGeometry x="400" y="430" width="140" height="80" as="geometry"/>
                </mxCell>
                <mxCell id="agKaHP87nCP-bGPWGKkW-7" value="True" style="text;html=1;strokeColor=none;fillColor=none;align=center;verticalAlign=middle;whiteSpace=wrap;rounded=0;" vertex="1" parent="7GAFne7jFf4ZpXgOAj6N-1">
                    <mxGeometry x="470" y="390" width="60" height="30" as="geometry"/>
                </mxCell>
                <mxCell id="agKaHP87nCP-bGPWGKkW-21" style="edgeStyle=none;html=1;" edge="1" parent="7GAFne7jFf4ZpXgOAj6N-1" source="agKaHP87nCP-bGPWGKkW-8">
                    <mxGeometry relative="1" as="geometry">
                        <mxPoint x="470" y="400" as="targetPoint"/>
                        <Array as="points">
                            <mxPoint x="380" y="580"/>
                            <mxPoint x="380" y="400"/>
                        </Array>
                    </mxGeometry>
                </mxCell>
                <mxCell id="agKaHP87nCP-bGPWGKkW-8" value="i,j" style="strokeWidth=2;html=1;shape=mxgraph.flowchart.display;whiteSpace=wrap;" vertex="1" parent="7GAFne7jFf4ZpXgOAj6N-1">
                    <mxGeometry x="420" y="550" width="100" height="60" as="geometry"/>
                </mxCell>
                <mxCell id="agKaHP87nCP-bGPWGKkW-10" value="True" style="text;html=1;strokeColor=none;fillColor=none;align=center;verticalAlign=middle;whiteSpace=wrap;rounded=0;" vertex="1" parent="7GAFne7jFf4ZpXgOAj6N-1">
                    <mxGeometry x="470" y="510" width="60" height="30" as="geometry"/>
                </mxCell>
                <mxCell id="agKaHP87nCP-bGPWGKkW-24" value="False" style="text;html=1;strokeColor=none;fillColor=none;align=center;verticalAlign=middle;whiteSpace=wrap;rounded=0;" vertex="1" parent="7GAFne7jFf4ZpXgOAj6N-1">
                    <mxGeometry x="560" y="370" width="60" height="30" as="geometry"/>
                </mxCell>
                <mxCell id="agKaHP87nCP-bGPWGKkW-25" value="False" style="text;html=1;strokeColor=none;fillColor=none;align=center;verticalAlign=middle;whiteSpace=wrap;rounded=0;" vertex="1" parent="7GAFne7jFf4ZpXgOAj6N-1">
                    <mxGeometry x="300" y="500" width="60" height="30" as="geometry"/>
                </mxCell>
            </root>
        </mxGraphModel>
    </diagram>
</mxfile>